<svg width="487" height="298" viewBox="0 0 487 298" fill="none" xmlns="http://www.w3.org/2000/svg">
<g clip-path="url(#clip0_286_623)">
<path fill-rule="evenodd" clip-rule="evenodd" d="M3.99991 50.0022L324.251 49.995C355.15 51.5426 425.843 43.5473 476.304 1.49882C480.409 -1.92223 486.999 0.876738 486.999 6.22075L487.002 129.992C487.002 135.23 480.581 138.185 476.344 135.106C454.42 119.175 413.197 97.8887 358.13 89.9291C353.459 147.767 305.042 193.249 246.001 193.251L143.001 193.253C82.8819 193.254 33.7759 146.098 30.656 86.7557L4.00074 86.7563C1.7916 86.7563 0.000693772 84.9655 0.000644273 82.7564L1.02608e-09 54.0023C-4.94975e-05 51.7931 1.79077 50.0022 3.99991 50.0022ZM61.7163 86.755C64.7887 128.964 100.007 162.254 143 162.253L246 162.251C288.894 162.25 324.047 129.113 327.259 87.0429C322.794 86.8497 318.257 86.7492 313.651 86.7494L61.7163 86.755Z" fill="#FFD057"/>
<path d="M156.006 280.477L156 44.0039C156 37.3765 161.373 32.0038 168 32.0036L319 32.0003C325.627 32.0001 331 37.3726 331 44L331.006 280.473C331.006 293.436 315.674 300.296 306.009 291.657L253.501 244.725C247.808 239.636 239.201 239.637 233.508 244.725L181.002 291.66C171.338 300.299 156.006 293.44 156.006 280.477Z" fill="#D40000"/>
</g>
<defs>
<clipPath id="clip0_286_623">
<rect width="487" height="298" fill="white"/>
</clipPath>
</defs>
</svg>
