<svg width="1183" height="352" viewBox="0 0 1183 352" fill="none" xmlns="http://www.w3.org/2000/svg">
<path d="M1071.5 351.757C1016.99 351.757 980.957 296.349 985.461 220.669C991.318 123.365 958.883 158.503 946.27 137.33C940.414 127.42 944.918 117.509 954.378 110.302C965.19 102.193 983.209 94.0845 1001.23 78.7682C1023.75 59.8482 1036.37 35.5224 1053.93 44.532C1067 51.2892 1064.75 67.0558 1060.69 87.7778C1059.79 93.1835 1058.44 99.4902 1057.54 106.247L1156.19 103.544C1171.06 103.094 1174.66 110.302 1169.26 120.663C1156.64 145.439 1152.14 160.305 1113.85 157.602L1053.03 153.097C1052.13 165.71 1051.23 177.423 1051.23 185.531C1049.88 249.95 1073.75 290.042 1107.09 290.042C1132.77 290.042 1145.38 281.933 1158.44 270.671C1167.9 262.563 1171.96 261.211 1177.36 265.266C1184.12 270.221 1183.22 275.627 1177.36 286.438C1153.94 329.684 1115.65 351.757 1071.5 351.757Z" fill="white"/>
<path d="M944 222H1182" stroke="#0090FF" stroke-width="7"/>
<path d="M803.12 351.757C766.181 351.757 740.053 349.054 710.322 341.396C699.961 338.693 695.456 333.738 696.357 324.278C697.258 315.719 697.709 301.304 697.258 289.141C696.357 269.32 689.6 254.454 702.664 249.048C716.629 243.192 726.089 262.112 737.35 276.978C750.414 294.096 782.398 312.566 813.481 312.566C836.455 312.566 853.574 307.61 853.574 293.195C853.574 281.032 832.852 273.825 785.552 259.409C726.989 241.39 694.555 214.812 694.555 168.863C694.555 109.851 760.325 90.4805 808.526 90.4805C845.465 90.4805 862.583 99.0395 883.756 98.589C899.072 98.1386 907.18 98.1386 906.279 108.95C905.829 115.257 904.477 127.42 905.378 148.592C906.279 168.413 913.037 185.531 899.973 190.937C886.008 196.793 874.746 176.071 865.286 160.755C852.673 140.483 826.094 126.969 800.868 126.969C776.992 126.969 764.83 134.627 764.83 149.493C764.83 163.458 780.146 172.467 822.941 185.081C886.458 204.001 923.398 227.876 923.398 275.176C923.398 324.278 871.142 351.757 803.12 351.757Z" fill="white"/>
<path d="M626.118 348.153C596.837 348.153 566.655 323.377 552.69 273.374C513.499 334.188 436.017 365.722 406.285 343.648C361.688 310.313 403.582 199.496 499.534 146.79C473.857 136.429 443.675 138.681 422.502 139.582C403.582 140.033 395.924 131.474 398.176 120.212C400.879 104.896 431.962 85.9756 482.866 85.9756C517.553 85.9756 540.527 94.5347 562.601 111.202C590.981 97.2375 620.262 88.6785 630.623 99.0394C645.488 113.905 626.568 126.969 611.252 151.745C596.386 176.071 599.089 194.991 616.207 234.633C635.578 279.23 663.057 299.952 663.057 315.268C663.057 330.134 645.488 348.153 626.118 348.153ZM475.208 271.572C487.371 280.131 506.291 272.473 524.31 247.697C540.077 225.623 543.23 195.892 531.067 173.819C517.553 182.828 504.94 194.09 489.173 213.911C468.451 239.588 462.595 262.563 475.208 271.572Z" fill="white"/>
<path d="M276.171 347.703C176.616 351.757 199.14 240.039 142.83 212.56C123.009 202.649 114.45 207.154 114.9 228.777C115.351 245.895 118.955 272.473 128.415 285.537C146.884 309.863 163.102 306.259 163.102 327.431C163.102 339.144 152.29 347.252 135.622 347.252C117.603 347.252 100.936 343.648 81.5652 343.648C62.6451 343.648 50.4822 347.252 27.5079 347.252C10.8403 347.252 0.0288086 339.144 0.0288086 327.431C0.0288086 306.259 16.246 309.863 34.7155 285.537C45.9775 270.671 48.6803 236.885 48.6803 199.045V155.349C48.6803 117.509 45.9775 83.7232 34.7155 68.8575C16.246 44.5317 4.53358 43.6308 4.53358 28.765C4.53358 15.2507 15.345 7.14212 32.0127 7.14212C45.527 7.14212 101.386 19.305 120.306 19.305C157.245 19.305 186.076 0.835449 225.267 0.835449C264.459 0.835449 305.452 29.666 305.452 69.7585C305.452 118.41 280.226 167.962 175.715 190.937C277.973 194.09 254.098 319.323 289.686 308.061C306.804 302.655 294.19 262.563 273.468 220.218C262.657 197.694 273.919 170.665 312.209 170.665C342.391 170.665 361.311 189.585 361.311 226.524C361.311 315.268 327.075 345.45 276.171 347.703ZM123.46 163.908C180.22 155.8 236.98 130.122 236.98 84.6242C236.98 59.848 210.402 47.6851 179.769 53.0908C119.405 63.9022 114.45 96.7871 114.45 155.349C114.45 163.007 116.702 164.809 123.46 163.908Z" fill="white"/>
<path d="M900.5 198C881 205 862.948 173.799 855.562 161.917C845.715 146.191 822.241 134 802.547 134C783.908 134 774 137.327 774 148.859C774 159.693 786.809 166.541 820.219 176.326" stroke="#0090FF" stroke-width="7"/>
<path d="M495.444 218.097L495.451 218.087L495.459 218.078C507.094 203.45 517.279 194.204 527.18 187.18C534.36 203.805 530.879 225.626 519.175 242.02C511.837 252.108 504.299 259.227 497.614 262.968C490.891 266.73 485.807 266.725 482.319 264.278C478.887 261.818 477.323 256.349 479.484 247.563C481.589 239.004 487.026 228.528 495.444 218.097Z" stroke="#0090FF" stroke-width="7"/>
<path d="M224.667 87.4195C224.667 105.438 213.487 119.907 195.593 130.937C177.701 141.965 153.629 149.175 129.329 152.649C126.714 152.996 126.117 152.637 126.074 152.61C126.043 152.574 125.915 152.398 125.786 151.896C125.616 151.235 125.5 150.224 125.5 148.7C125.5 123.19 126.636 104.256 133.79 90.4979C140.72 77.1706 153.675 68.117 179.209 63.543C191.928 61.2994 203.494 62.7665 211.717 67.0548C219.806 71.2734 224.667 78.1719 224.667 87.4195ZM126.077 152.613C126.083 152.619 126.083 152.619 126.077 152.612C126.077 152.613 126.077 152.613 126.077 152.613Z" stroke="#0090FF" stroke-width="7"/>
</svg>
