<svg width="232" height="208" viewBox="0 0 232 208" fill="none" xmlns="http://www.w3.org/2000/svg">
<path d="M26.34 205.528C14.648 205.528 7.064 198.892 7.064 190.676C7.064 175.824 16.86 177.404 28.236 162.236C36.136 151.808 38.032 127.476 38.032 100.932C38.032 64.908 13.384 76.916 4.536 62.064C0.428 55.112 3.588 48.16 10.224 43.104C17.808 37.416 26.34 34.888 37.716 27.936C46.564 22.564 51.936 17.824 60.468 10.24C69.632 2.33998 79.744 2.97199 85.116 10.556C89.856 17.192 84.168 29.2 84.168 64.592C99.02 37.1 123.352 22.88 154.952 22.88C193.504 22.88 217.204 47.844 210.252 97.772C203.932 143.908 206.144 154.968 219.732 168.556C229.212 178.036 231.424 182.46 230.476 191.624C229.528 199.84 222.892 205.528 211.2 205.528C198.56 205.528 185.288 203 171.7 203C158.428 203 156.216 205.528 143.26 205.528C131.568 205.528 127.46 199.524 127.144 191.624C126.512 176.772 145.788 173.612 160.324 130.636C174.544 88.924 145.788 50.372 111.976 64.592C78.48 78.812 75.32 129.056 93.964 162.236C100.916 174.56 106.288 183.724 105.656 191.624C105.024 199.84 98.072 205.528 89.54 205.528C80.06 205.528 74.688 203 61.1 203C47.828 203 42.456 205.528 26.34 205.528Z" fill="white"/>
</svg>
