<svg width="242" height="208" viewBox="0 0 242 208" fill="none" xmlns="http://www.w3.org/2000/svg">
<path d="M144.8 194.776C168.88 185.832 176.104 172.416 176.104 146.272V89.512C176.104 52.36 162 34.128 133.792 34.128C104.208 34.128 88.04 54.08 72.904 76.096V88.48V146.272C72.904 172.416 80.128 185.488 107.648 194.776L106.272 204.408C89.416 202.688 68.776 202 57.768 202C46.76 202 29.56 202.688 8.576 204.408L7.2 194.776C34.72 185.832 41.944 172.416 41.944 146.272V101.208C41.944 77.472 34.376 57.176 8.576 55.112V46.856C35.408 38.6 53.984 25.872 67.056 9.01598L76.688 11.424C73.592 31.376 72.904 46.856 72.904 60.96C91.824 26.56 123.472 7.64 149.616 7.64C188.144 7.64 207.064 34.472 207.064 88.136V146.272C207.064 172.416 214.288 185.488 241.808 194.776L240.432 204.408C223.576 202.688 202.936 202 191.928 202C180.92 202 163.72 202.688 146.176 204.408L144.8 194.776Z" fill="white"/>
</svg>
