<svg width="174" height="208" viewBox="0 0 174 208" fill="none" xmlns="http://www.w3.org/2000/svg">
<path d="M171.226 176.712L133.786 207.496C123.802 201.117 117.007 194.323 113.402 187.112C110.074 179.901 108.41 170.056 108.41 157.576V58.152L89.69 41.928L60.154 63.56V166.728L71.386 180.872L41.434 207.496L9.81802 180.872L21.466 167.976V61.064C21.466 53.8533 18.138 47.4747 11.482 41.928L4.82602 46.504L0.666016 41.928L34.778 10.728C52.25 21.2667 60.986 35.8267 60.986 54.408C72.634 45.8107 82.8954 37.9067 91.77 30.696C100.645 23.4853 108.133 17.1067 114.234 11.56L142.938 38.184L160.826 24.04L164.986 28.616C161.935 32.4987 158.885 36.6587 155.834 41.096C152.783 45.5333 149.733 50.1093 146.682 54.824V164.232C148.623 169.224 152.506 173.661 158.33 177.544L167.066 172.552L171.226 176.712Z" fill="white"/>
</svg>
