<svg width="247" height="208" viewBox="0 0 247 208" fill="none" xmlns="http://www.w3.org/2000/svg">
<path d="M205.216 196.36C206.765 197.467 207.208 199.016 206.544 201.008C206.101 202.779 204.995 203.443 203.224 203C200.789 202.336 197.469 201.672 193.264 201.008C189.059 200.344 184.521 199.901 179.652 199.68C174.783 199.459 169.803 199.68 164.712 200.344C159.843 200.787 155.527 201.893 151.764 203.664C150.657 204.107 149.661 203.885 148.776 203C148.112 202.115 147.78 201.119 147.78 200.012C147.78 191.823 147.891 183.633 148.112 175.444C148.555 167.255 148.997 159.176 149.44 151.208C149.661 147.224 149.883 142.355 150.104 136.6C150.325 130.624 150.547 124.648 150.768 118.672C150.989 112.475 151.1 106.499 151.1 100.744C151.321 94.768 151.432 89.788 151.432 85.804C151.432 75.18 148.223 65.9947 141.804 58.248C135.607 50.5013 127.749 44.0827 118.232 38.992C108.936 33.68 98.8653 29.696 88.02 27.04C77.1747 24.1627 67.2147 22.1707 58.14 21.064C57.9187 23.056 57.6973 26.8187 57.476 32.352C57.2547 37.664 57.0333 43.308 56.812 49.284C56.812 55.26 56.7013 60.904 56.48 66.216C56.48 71.3067 56.48 74.7373 56.48 76.508V145.232C56.48 155.635 58.2507 165.152 61.792 173.784C65.3333 182.195 70.3133 189.941 76.732 197.024C77.6173 198.131 77.8387 199.348 77.396 200.676C76.9533 201.783 75.9573 202.447 74.408 202.668C71.5307 203.111 68.6533 202.668 65.776 201.34C63.12 199.791 60.2427 199.127 57.144 199.348C51.168 199.569 45.3027 200.012 39.548 200.676C33.7933 201.119 28.1493 202.336 22.616 204.328C21.5093 204.771 20.4027 204.66 19.296 203.996C18.1893 203.332 17.7467 202.225 17.968 200.676C20.1813 182.748 21.62 165.041 22.284 147.556C22.948 129.849 23.28 112.032 23.28 94.104V68.54C23.28 65.6627 23.1693 61.7893 22.948 56.92C22.948 51.8293 22.7267 46.7387 22.284 41.648C21.8413 36.336 21.0667 31.4667 19.96 27.04C19.0747 22.6133 17.8573 19.404 16.308 17.412C15.2013 16.3053 14.8693 15.1987 15.312 14.092C15.7547 12.9853 16.7507 12.2107 18.3 11.768C33.572 8.44799 49.2867 6.78799 65.444 6.78799C71.42 6.78799 77.064 6.67733 82.376 6.456C87.9093 6.23465 93.2213 6.23465 98.312 6.456C103.624 6.67733 108.825 7.23066 113.916 8.116C119.228 9.00133 124.872 10.5507 130.848 12.764V12.432C131.955 12.8747 133.061 13.428 134.168 14.092C135.496 14.756 136.824 15.5307 138.152 16.416L137.82 16.084C149.993 23.388 159.511 30.36 166.372 37C173.455 43.64 178.656 50.1693 181.976 56.588C185.517 63.0067 187.62 69.536 188.284 76.176C189.169 82.5947 189.612 89.2347 189.612 96.096C189.612 98.088 189.501 100.301 189.28 102.736C189.28 104.949 189.28 107.273 189.28 109.708C189.28 112.143 189.169 114.688 188.948 117.344C188.948 120 188.948 122.545 188.948 124.98C188.948 131.62 188.837 138.481 188.616 145.564C188.395 152.647 188.616 159.508 189.28 166.148C190.165 172.567 191.715 178.432 193.928 183.744C196.363 189.056 200.125 193.261 205.216 196.36Z" fill="white"/>
</svg>
