<svg width="247" height="208" viewBox="0 0 247 208" fill="none" xmlns="http://www.w3.org/2000/svg">
<path d="M156.002 0.324219L179.157 46.458L189.586 75.2695L194.358 118.929L192.237 136.428L189.232 154.634L181.455 166.3L174.031 178.673L166.077 191.046C159.596 195.877 152.585 198.941 145.043 200.237L148.401 192.106L160.244 151.806L162.365 125.469L152.997 80.2188L142.392 54.5889L131.609 37.4434L123.655 44.1602L111.105 57.0635L98.3789 65.1943L88.6572 75.623L84.415 91.001V104.435L88.6572 124.055L89.7178 160.113L63.0273 194.228L51.3613 203.419L43.9375 205.363L38.6348 202.358L46.0586 188.925L55.6035 178.673L56.6641 170.365L53.4824 165.239L47.1191 76.5068L37.5742 66.2549L25.7314 57.9473L18.3076 48.7559L34.3926 31.9639L78.2285 7.21777L84.415 13.7578L81.2334 30.1963L82.2939 46.6348C83.1188 51.4661 85.9469 54.5889 90.7783 56.0029L112.166 36.0293L132.493 16.7627L143.099 7.57129C147.341 5.4502 151.642 3.03451 156.002 0.324219Z" fill="white"/>
</svg>
