<svg width="34" height="34" viewBox="0 0 34 34" fill="none" xmlns="http://www.w3.org/2000/svg">
<g clip-path="url(#clip0_307_860)">
<rect width="34" height="34" rx="17" fill="white"/>
<path d="M20.9939 34V30C21.1331 28.7473 20.7739 27.4901 19.9939 26.5C22.9939 26.5 25.9939 24.5 25.9939 21C26.0739 19.75 25.7239 18.52 24.9939 17.5C25.2739 16.35 25.2739 15.15 24.9939 14C24.9939 14 23.9939 14 21.9939 15.5C19.3539 15 16.6339 15 13.9939 15.5C11.9939 14 10.9939 14 10.9939 14C10.6939 15.15 10.6939 16.35 10.9939 17.5C10.2658 18.5159 9.91241 19.7528 9.99393 21C9.99393 24.5 12.9939 26.5 15.9939 26.5C15.6039 26.99 15.3139 27.55 15.1439 28.15C14.9739 28.75 14.9239 29.38 14.9939 30V34" fill="#09002B"/>
<path d="M14.9939 30C10.4839 32 9.99414 28 7.99414 28L14.9939 30Z" fill="#09002B"/>
<path d="M20.9939 34V30C21.1331 28.7473 20.7739 27.4901 19.9939 26.5C22.9939 26.5 25.9939 24.5 25.9939 21C26.0739 19.75 25.7239 18.52 24.9939 17.5C25.2739 16.35 25.2739 15.15 24.9939 14C24.9939 14 23.9939 14 21.9939 15.5C19.3539 15 16.6339 15 13.9939 15.5C11.9939 14 10.9939 14 10.9939 14C10.6939 15.15 10.6939 16.35 10.9939 17.5C10.2658 18.5159 9.91241 19.7528 9.99393 21C9.99393 24.5 12.9939 26.5 15.9939 26.5C15.6039 26.99 15.3139 27.55 15.1439 28.15C14.9739 28.75 14.9239 29.38 14.9939 30M14.9939 30V34M14.9939 30C10.4839 32 9.99414 28 7.99414 28" stroke="#09002B" stroke-width="2" stroke-linecap="round" stroke-linejoin="round"/>
</g>
<defs>
<clipPath id="clip0_307_860">
<rect width="34" height="34" rx="17" fill="white"/>
</clipPath>
</defs>
</svg>
