<svg width="488" height="194" viewBox="0 0 488 194" fill="none" xmlns="http://www.w3.org/2000/svg">
<path fill-rule="evenodd" clip-rule="evenodd" d="M4.32943 50.1877L324.58 50.1805C355.479 51.7281 426.173 43.7328 476.633 1.68434C480.739 -1.73671 487.328 1.06226 487.328 6.40627L487.331 130.177C487.331 135.415 480.911 138.37 476.673 135.291C454.75 119.36 413.526 98.0743 358.459 90.1146C353.789 147.953 305.372 193.435 246.331 193.436L143.331 193.439C83.2114 193.44 34.1054 146.284 30.9855 86.9412L4.33026 86.9418C2.12112 86.9419 0.330213 85.151 0.330164 82.9419L0.32952 54.1878C0.32947 51.9787 2.12029 50.1878 4.32943 50.1877ZM62.0458 86.9405C65.1182 129.15 100.337 162.439 143.33 162.439L246.33 162.436C289.223 162.435 324.377 129.299 327.589 87.2285C323.124 87.0352 318.587 86.9348 313.981 86.9349L62.0458 86.9405Z" fill="#FFD057"/>
</svg>
